<svg width="97" height="59" viewBox="0 0 97 59" fill="none" xmlns="http://www.w3.org/2000/svg">
<g clip-path="url(#clip0_111_200)">
<path d="M12.5581 0V3.83066C11.5028 3.83066 10.6796 3.98157 10.0882 4.28338C9.49679 4.57357 9.24169 5.15977 9.32287 6.04199L9.86206 11.1785C10.0012 12.4786 9.85626 13.5292 9.42722 14.3301C9.00978 15.131 8.36623 15.7464 7.49655 16.1758C6.63848 16.5938 5.62386 16.8897 4.45271 17.0638C5.69343 17.2495 6.74284 17.5514 7.60092 17.9693C8.45899 18.3871 9.08516 18.9907 9.47941 19.7801C9.87366 20.5695 10.0012 21.6258 9.86206 22.9492L9.32287 28.0857C9.24169 28.9679 9.49679 29.5541 10.0882 29.8443C10.6796 30.146 11.5028 30.297 12.5581 30.297V34.1277C9.35765 34.1277 7.1081 33.6401 5.80939 32.6651C4.52229 31.7016 4.00048 30.0475 4.24398 27.7026L4.76579 22.7227C4.85856 21.8406 4.70782 21.1499 4.31357 20.6507C3.93091 20.1516 3.36272 19.8033 2.60901 19.6059C1.85529 19.3971 0.985626 19.2926 0 19.2926V14.8351C0.97403 14.8351 1.8379 14.7364 2.59162 14.5391C3.34533 14.3301 3.91932 13.9761 4.31357 13.477C4.70782 12.9778 4.85856 12.2871 4.76579 11.4049L4.24398 6.45987C3.98889 4.06861 4.51068 2.39706 5.80939 1.4452C7.1081 0.481734 9.35765 0 12.5581 0Z" fill="url(#paint0_linear_111_200)"/>
<path d="M27.633 4.5097C30.5087 4.5097 32.6771 5.62408 34.1381 7.85282C35.6108 10.07 36.3471 13.1635 36.3471 17.1335C36.3471 21.115 35.6108 24.2318 34.1381 26.4837C32.6771 28.7241 30.5087 29.8443 27.633 29.8443C24.7342 29.8443 22.5541 28.7241 21.0931 26.4837C19.6436 24.2318 18.9189 21.115 18.9189 17.1335C18.9189 13.1635 19.6436 10.07 21.0931 7.85282C22.5541 5.62408 24.7342 4.5097 27.633 4.5097ZM27.633 8.49707C26.4039 8.49707 25.5052 9.15873 24.937 10.482C24.3689 11.7938 24.0847 14.0109 24.0847 17.1335C24.0847 18.155 24.1022 19.0662 24.1369 19.8671C24.1718 20.6565 24.224 21.3588 24.2935 21.974L30.1724 9.66367C29.8942 9.22258 29.5463 8.92077 29.1289 8.75825C28.7231 8.58413 28.2244 8.49707 27.633 8.49707ZM31.1465 17.1335C31.1465 15.7986 31.1175 14.6725 31.0595 13.7555L25.511 25.2301C25.7662 25.4738 26.0676 25.6421 26.4154 25.735C26.775 25.8278 27.1808 25.8743 27.633 25.8743C28.4564 25.8743 29.1231 25.5958 29.6333 25.0386C30.1551 24.4814 30.5377 23.5643 30.7812 22.2875C31.0248 20.9989 31.1465 19.2809 31.1465 17.1335Z" fill="url(#paint1_linear_111_200)"/>
<path d="M48.5 4.5097C51.3757 4.5097 53.5441 5.62408 55.0051 7.85282C56.4778 10.07 57.214 13.1635 57.214 17.1335C57.214 21.115 56.4778 24.2318 55.0051 26.4837C53.5441 28.7241 51.3757 29.8443 48.5 29.8443C45.601 29.8443 43.4211 28.7241 41.9601 26.4837C40.5106 24.2318 39.7859 21.115 39.7859 17.1335C39.7859 13.1635 40.5106 10.07 41.9601 7.85282C43.4211 5.62408 45.601 4.5097 48.5 4.5097ZM48.5 8.49707C47.2709 8.49707 46.3722 9.15873 45.804 10.482C45.2359 11.7938 44.9518 14.0109 44.9518 17.1335C44.9518 18.155 44.9692 19.0662 45.0039 19.8671C45.0387 20.6565 45.0909 21.3588 45.1605 21.974L51.0394 9.66367C50.7611 9.22258 50.4132 8.92077 49.9959 8.75825C49.5899 8.58413 49.0913 8.49707 48.5 8.49707ZM52.0135 17.1335C52.0135 15.7986 51.9845 14.6725 51.9265 13.7555L46.378 25.2301C46.633 25.4738 46.9346 25.6421 47.2825 25.735C47.642 25.8278 48.0478 25.8743 48.5 25.8743C49.3233 25.8743 49.99 25.5958 50.5003 25.0386C51.022 24.4814 51.4047 23.5643 51.6482 22.2875C51.8917 20.9989 52.0135 19.2809 52.0135 17.1335Z" fill="url(#paint2_linear_111_200)"/>
<path d="M68.1146 29.8095L62.8966 28.1902L71.889 9.26321H61.2964V5.11914H77.4549V8.84532L68.1146 29.8095Z" fill="url(#paint3_linear_111_200)"/>
<path d="M84.442 0C87.6423 0 89.8861 0.481734 91.1733 1.4452C92.472 2.40867 92.9996 4.06862 92.7561 6.42505L92.2342 11.4049C92.1414 12.2871 92.2922 12.9778 92.6865 13.477C93.0807 13.9761 93.6488 14.3301 94.391 14.5391C95.1447 14.7364 96.0144 14.8351 97 14.8351V19.2926C96.026 19.2926 95.1622 19.3971 94.4084 19.6059C93.6547 19.8033 93.0807 20.1516 92.6865 20.6507C92.2922 21.1499 92.1414 21.8406 92.2342 22.7227L92.7561 27.6678C93.0228 30.0475 92.5009 31.719 91.1906 32.6824C89.8919 33.646 87.6423 34.1277 84.442 34.1277V30.297C85.5088 30.297 86.3379 30.146 86.9292 29.8443C87.5207 29.5541 87.7699 28.9679 87.6772 28.0857L87.1379 22.9492C86.9988 21.6374 87.1379 20.5868 87.5554 19.7976C87.9844 18.9965 88.6338 18.3871 89.5035 17.9693C90.3731 17.5397 91.3935 17.238 92.5647 17.0638C91.3239 16.8781 90.2688 16.5763 89.3991 16.1584C88.541 15.7405 87.9149 15.1369 87.5207 14.3476C87.1264 13.5466 86.9988 12.4903 87.1379 11.1785L87.6772 6.04199C87.7699 5.15977 87.5148 4.57357 86.9119 4.28338C86.3204 3.98157 85.4972 3.83066 84.442 3.83066V0Z" fill="url(#paint4_linear_111_200)"/>
<g filter="url(#filter0_di_111_200)">
<path d="M31.7909 38.88V50H29.9669V45.136H24.7349V50H22.9109V38.88H24.7349V43.648H29.9669V38.88H31.7909ZM33.7122 40V38.336H37.0402V50H35.2002V40H33.7122ZM46.9699 38.88V40.368H44.0099V50H42.1859V40.368H39.2099V38.88H46.9699ZM55.5212 47.728H50.8652L50.0652 50H48.1612L52.1452 38.864H54.2572L58.2412 50H56.3212L55.5212 47.728ZM55.0092 46.24L53.2012 41.072L51.3772 46.24H55.0092ZM66.1014 50L61.7974 45.024V50H59.9734V38.88H61.7974V43.952L66.1174 38.88H68.4054L63.5734 44.448L68.4854 50H66.1014ZM71.9224 40.352V43.616H75.7624V45.104H71.9224V48.512H76.2424V50H70.0984V38.864H76.2424V40.352H71.9224Z" fill="url(#paint5_linear_111_200)"/>
</g>
</g>
<defs>
<filter id="filter0_di_111_200" x="18.9109" y="38.336" width="61.3315" height="19.664" filterUnits="userSpaceOnUse" color-interpolation-filters="sRGB">
<feFlood flood-opacity="0" result="BackgroundImageFix"/>
<feColorMatrix in="SourceAlpha" type="matrix" values="0 0 0 0 0 0 0 0 0 0 0 0 0 0 0 0 0 0 127 0" result="hardAlpha"/>
<feOffset dy="4"/>
<feGaussianBlur stdDeviation="2"/>
<feComposite in2="hardAlpha" operator="out"/>
<feColorMatrix type="matrix" values="0 0 0 0 0 0 0 0 0 0 0 0 0 0 0 0 0 0 0.25 0"/>
<feBlend mode="normal" in2="BackgroundImageFix" result="effect1_dropShadow_111_200"/>
<feBlend mode="normal" in="SourceGraphic" in2="effect1_dropShadow_111_200" result="shape"/>
<feColorMatrix in="SourceAlpha" type="matrix" values="0 0 0 0 0 0 0 0 0 0 0 0 0 0 0 0 0 0 127 0" result="hardAlpha"/>
<feOffset dy="4"/>
<feGaussianBlur stdDeviation="2"/>
<feComposite in2="hardAlpha" operator="arithmetic" k2="-1" k3="1"/>
<feColorMatrix type="matrix" values="0 0 0 0 0 0 0 0 0 0 0 0 0 0 0 0 0 0 0.25 0"/>
<feBlend mode="normal" in2="shape" result="effect2_innerShadow_111_200"/>
</filter>
<linearGradient id="paint0_linear_111_200" x1="-2.05005" y1="36.7549" x2="99.9719" y2="0.679714" gradientUnits="userSpaceOnUse">
<stop stop-color="#00C0FD"/>
<stop offset="1" stop-color="#E70FAA"/>
</linearGradient>
<linearGradient id="paint1_linear_111_200" x1="-2.05004" y1="36.7549" x2="99.972" y2="0.679694" gradientUnits="userSpaceOnUse">
<stop stop-color="#00C0FD"/>
<stop offset="1" stop-color="#E70FAA"/>
</linearGradient>
<linearGradient id="paint2_linear_111_200" x1="-2.05007" y1="36.7549" x2="99.9719" y2="0.679696" gradientUnits="userSpaceOnUse">
<stop stop-color="#00C0FD"/>
<stop offset="1" stop-color="#E70FAA"/>
</linearGradient>
<linearGradient id="paint3_linear_111_200" x1="-2.05005" y1="36.7549" x2="99.9719" y2="0.679708" gradientUnits="userSpaceOnUse">
<stop stop-color="#00C0FD"/>
<stop offset="1" stop-color="#E70FAA"/>
</linearGradient>
<linearGradient id="paint4_linear_111_200" x1="-2.05002" y1="36.7549" x2="99.972" y2="0.679722" gradientUnits="userSpaceOnUse">
<stop stop-color="#00C0FD"/>
<stop offset="1" stop-color="#E70FAA"/>
</linearGradient>
<linearGradient id="paint5_linear_111_200" x1="11.6958" y1="44.0001" x2="84" y2="44.0001" gradientUnits="userSpaceOnUse">
<stop offset="0.0260229" stop-color="#13B0F5"/>
<stop offset="1" stop-color="#E70FAA"/>
</linearGradient>
<clipPath id="clip0_111_200">
<rect width="97" height="59" fill="white"/>
</clipPath>
</defs>
</svg>
